<svg width="24" height="24" viewBox="0 0 24 24" fill="none" xmlns="http://www.w3.org/2000/svg">
<path fill-rule="evenodd" clip-rule="evenodd" d="M11.5342 0C17.894 0 23.0672 5.05904 23.0672 11.2786C23.0672 14.213 21.9157 16.8893 20.0313 18.8979L23.7392 22.5163C24.0862 22.8557 24.0873 23.4047 23.7403 23.744C23.5674 23.9155 23.3388 24 23.1115 24C22.8853 24 22.6579 23.9155 22.4838 23.7464L18.7312 20.0868C16.7571 21.6328 14.2542 22.5584 11.5342 22.5584C5.17433 22.5584 0 17.4982 0 11.2786C0 5.05904 5.17433 0 11.5342 0ZM11.5342 1.73731C6.15377 1.73731 1.77649 6.01688 1.77649 11.2786C1.77649 16.5403 6.15377 20.8211 11.5342 20.8211C16.9134 20.8211 21.2907 16.5403 21.2907 11.2786C21.2907 6.01688 16.9134 1.73731 11.5342 1.73731Z" fill="#252525"/>
</svg>
