<svg width="27" height="28" viewBox="0 0 27 28" fill="none" xmlns="http://www.w3.org/2000/svg">
<path d="M13.5 25.6667C12.8813 25.6667 12.3516 25.4382 11.9109 24.9813C11.4703 24.5243 11.25 23.975 11.25 23.3333H15.75C15.75 23.975 15.5297 24.5243 15.0891 24.9813C14.6484 25.4382 14.1188 25.6667 13.5 25.6667ZM5.625 22.1667C5.30625 22.1667 5.03906 22.0549 4.82344 21.8313C4.60781 21.6076 4.5 21.3306 4.5 21C4.5 20.6695 4.60781 20.3924 4.82344 20.1688C5.03906 19.9451 5.30625 19.8333 5.625 19.8333H6.75V11.6667C6.75 10.0528 7.21875 8.61876 8.15625 7.36459C9.09375 6.11043 10.3125 5.2889 11.8125 4.90001V4.08334C11.8125 3.59723 11.9766 3.18404 12.3047 2.84376C12.6328 2.50348 13.0313 2.33334 13.5 2.33334C13.9688 2.33334 14.3672 2.50348 14.6953 2.84376C15.0234 3.18404 15.1875 3.59723 15.1875 4.08334V4.46251C15 4.8514 14.8594 5.25973 14.7656 5.68751C14.6719 6.11529 14.625 6.55279 14.625 7.00001C14.625 8.6139 15.1734 9.98959 16.2703 11.1271C17.3672 12.2646 18.6938 12.8333 20.25 12.8333V19.8333H21.375C21.6938 19.8333 21.9609 19.9451 22.1766 20.1688C22.3922 20.3924 22.5 20.6695 22.5 21C22.5 21.3306 22.3922 21.6076 22.1766 21.8313C21.9609 22.0549 21.6938 22.1667 21.375 22.1667H5.625ZM20.25 10.5C19.3125 10.5 18.5156 10.1597 17.8594 9.47918C17.2031 8.79862 16.875 7.97223 16.875 7.00001C16.875 6.02779 17.2031 5.2014 17.8594 4.52084C18.5156 3.84029 19.3125 3.50001 20.25 3.50001C21.1875 3.50001 21.9844 3.84029 22.6406 4.52084C23.2969 5.2014 23.625 6.02779 23.625 7.00001C23.625 7.97223 23.2969 8.79862 22.6406 9.47918C21.9844 10.1597 21.1875 10.5 20.25 10.5Z" fill="#172452"/>
</svg>
