<svg width="20" height="20" viewBox="0 0 20 20" fill="none" xmlns="http://www.w3.org/2000/svg">
<path d="M17.7778 0H2.22222C1 0 0 1 0 2.22222V17.7778C0 19 1 20 2.22222 20H17.7778C19 20 20 19 20 17.7778V2.22222C20 1 19 0 17.7778 0ZM10 3.33333C12.1444 3.33333 13.8889 5.07778 13.8889 7.22222C13.8889 9.36667 12.1444 11.1111 10 11.1111C7.85556 11.1111 6.11111 9.36667 6.11111 7.22222C6.11111 5.07778 7.85556 3.33333 10 3.33333ZM17.7778 17.7778H2.22222V17.5222C2.22222 16.8333 2.53333 16.1889 3.06667 15.7667C4.96667 14.2444 7.37778 13.3333 10 13.3333C12.6222 13.3333 15.0333 14.2444 16.9333 15.7667C17.4667 16.1889 17.7778 16.8444 17.7778 17.5222V17.7778Z" fill="#172452"/>
</svg>
