<svg width="24" height="27" viewBox="0 0 24 27" fill="none" xmlns="http://www.w3.org/2000/svg">
<path d="M20.0659 14.2318C20.0531 12.0251 21.1116 10.3597 23.254 9.1331C22.0553 7.51571 20.2444 6.62585 17.8534 6.45149C15.5898 6.28314 13.1158 7.69609 12.2104 7.69609C11.254 7.69609 9.06058 6.51161 7.339 6.51161C3.78108 6.56573 0 9.18721 0 14.5204C0 16.0957 0.306057 17.7231 0.918172 19.4026C1.73433 21.6092 4.68013 27.0205 7.75346 26.9303C9.36026 26.8942 10.4952 25.8541 12.5866 25.8541C14.6142 25.8541 15.6663 26.9303 17.458 26.9303C20.5569 26.8882 23.2221 21.9699 24 19.7573C19.8427 17.9114 20.0659 14.346 20.0659 14.2318ZM16.457 4.35911C18.1977 2.41104 18.0383 0.637333 17.9873 0C16.4506 0.084176 14.6716 0.986062 13.6578 2.09839C12.542 3.28888 11.8852 4.76196 12.0255 6.42143C13.6897 6.54168 15.2072 5.73599 16.457 4.35911Z" fill="black"/>
</svg>
