<svg width="25" height="25" viewBox="0 0 25 25" fill="none" xmlns="http://www.w3.org/2000/svg">
<path d="M25 12.5C25 5.5957 19.4043 0 12.5 0C5.5957 0 0 5.5957 0 12.5C0 18.7397 4.56836 23.9111 10.5479 24.8491V16.1162H7.37647V12.5H10.5479V9.74658C10.5479 6.61621 12.4106 4.88379 15.2671 4.88379C16.6367 4.88379 18.0684 5.13037 18.0684 5.13037V8.20557H16.4932C14.9385 8.20557 14.459 9.17139 14.459 10.1577V12.5H17.9248L17.3701 16.1162H14.459V24.8491C20.4316 23.9111 25 18.7397 25 12.5Z" fill="#1877F2"/>
<path d="M17.3628 16.1162L17.918 12.5H14.4521V10.1577C14.4521 9.17139 14.9385 8.20557 16.4863 8.20557H18.0615V5.13037C18.0615 5.13037 16.6299 4.88379 15.2603 4.88379C12.4043 4.88379 10.541 6.6167 10.541 9.74658V12.5H7.36963V16.1162H10.541V24.8491C11.1782 24.9517 11.8286 25 12.4932 25C13.1577 25 13.8081 24.9453 14.4453 24.8491V16.1162H17.3628Z" fill="white"/>
</svg>
