<svg width="22" height="22" viewBox="0 0 22 22" fill="none" xmlns="http://www.w3.org/2000/svg">
<path fill-rule="evenodd" clip-rule="evenodd" d="M6.6 1.22222C6.6 0.547556 7.0543 0 7.6153 0H14.3847C14.9457 0 15.4 0.547556 15.4 1.22222C15.4 1.89689 14.9457 2.44444 14.3847 2.44444H7.6153C7.0543 2.44444 6.6 1.89689 6.6 1.22222ZM8.5558 22H13.4442C16.8773 22 18.5944 22 19.8275 21.1176C20.358 20.7385 20.8163 20.2472 21.1761 19.6717C22 18.3517 22 16.5122 22 12.8333C22 9.15444 22 7.31622 21.175 5.995C20.8156 5.41947 20.3577 4.92818 19.8275 4.54911C18.5944 3.66667 16.8773 3.66667 13.4442 3.66667H8.5558C5.1227 3.66667 3.4056 3.66667 2.1725 4.54911C1.64233 4.9282 1.18446 5.4195 0.825 5.995C0 7.315 0 9.15444 0 12.8309V12.8333C0 16.5122 6.55651e-08 18.3504 0.8239 19.6717C1.1803 20.2437 1.6379 20.735 2.1725 21.1176C3.4056 22 5.1227 22 8.5558 22ZM6.4163 12.8333C6.4163 10.12 8.4689 7.92244 11 7.92244C13.5311 7.92244 15.5837 10.1212 15.5837 12.8333C15.5837 15.5454 13.53 17.7442 11 17.7442C8.4689 17.7442 6.4163 15.5442 6.4163 12.8333ZM8.25 12.8333C8.25 11.2053 9.482 9.88778 11 9.88778C12.518 9.88778 13.75 11.2066 13.75 12.8333C13.75 14.4601 12.518 15.7789 11 15.7789C9.482 15.7789 8.25 14.4601 8.25 12.8333ZM17.7221 7.92244C17.2161 7.92244 16.8058 8.36244 16.8058 8.90511C16.8058 9.44656 17.2161 9.88655 17.7221 9.88655H18.3337C18.8397 9.88655 19.25 9.44656 19.25 8.90511C19.25 8.36244 18.8397 7.92244 18.3337 7.92244H17.7221Z" fill="#242760" fill-opacity="0.81"/>
</svg>
